<svg id="visual" viewBox="0 0 900 350" width="900" height="350" xmlns="http://www.w3.org/2000/svg" xmlns:xlink="http://www.w3.org/1999/xlink" version="1.1"><rect x="0" y="0" width="900" height="350" fill="#80aeed"></rect><path d="M0 284L37.5 282.5C75 281 150 278 225 281.7C300 285.3 375 295.7 450 294.8C525 294 600 282 675 274.5C750 267 825 264 862.5 262.5L900 261L900 351L862.5 351C825 351 750 351 675 351C600 351 525 351 450 351C375 351 300 351 225 351C150 351 75 351 37.5 351L0 351Z" fill="#ffffff" stroke-linecap="round" stroke-linejoin="miter"></path></svg>