<svg id="visual" viewBox="0 0 900 450" width="900" height="450" xmlns="http://www.w3.org/2000/svg" xmlns:xlink="http://www.w3.org/1999/xlink" version="1.1"><rect x="0" y="0" width="900" height="450" fill="#d8eeff"></rect><defs><linearGradient id="grad1_0" x1="50%" y1="100%" x2="100%" y2="0%"><stop offset="10%" stop-color="#8478ff" stop-opacity="1"></stop><stop offset="90%" stop-color="#8478ff" stop-opacity="1"></stop></linearGradient></defs><defs><linearGradient id="grad1_1" x1="50%" y1="100%" x2="100%" y2="0%"><stop offset="10%" stop-color="#8478ff" stop-opacity="1"></stop><stop offset="90%" stop-color="#d8eeff" stop-opacity="1"></stop></linearGradient></defs><defs><linearGradient id="grad2_0" x1="0%" y1="100%" x2="50%" y2="0%"><stop offset="10%" stop-color="#8478ff" stop-opacity="1"></stop><stop offset="90%" stop-color="#8478ff" stop-opacity="1"></stop></linearGradient></defs><defs><linearGradient id="grad2_1" x1="0%" y1="100%" x2="50%" y2="0%"><stop offset="10%" stop-color="#d8eeff" stop-opacity="1"></stop><stop offset="90%" stop-color="#8478ff" stop-opacity="1"></stop></linearGradient></defs><g transform="translate(900, 450)"><path d="M-202.5 0C-200.7 -27.6 -198.9 -55.2 -187.1 -77.5C-175.3 -99.8 -153.4 -116.6 -133.6 -133.6C-113.9 -150.6 -96.2 -167.7 -74.2 -179.2C-52.3 -190.7 -26.2 -196.6 0 -202.5L0 0Z" fill="#88bbff"></path><path d="M-101.2 0C-100.4 -13.8 -99.5 -27.6 -93.5 -38.7C-87.6 -49.9 -76.7 -58.3 -66.8 -66.8C-56.9 -75.3 -48.1 -83.9 -37.1 -89.6C-26.2 -95.4 -13.1 -98.3 0 -101.2L0 0Z" fill="#8478ff"></path></g><g transform="translate(0, 0)"><path d="M202.5 0C197.4 25.1 192.4 50.2 183.9 76.2C175.3 102.1 163.4 128.9 143.2 143.2C123 157.5 94.5 159.4 69.3 167.2C44 175 22 188.8 0 202.5L0 0Z" fill="#88bbff"></path><path d="M101.2 0C98.7 12.6 96.2 25.1 91.9 38.1C87.7 51 81.7 64.4 71.6 71.6C61.5 78.8 47.3 79.7 34.6 83.6C22 87.5 11 94.4 0 101.2L0 0Z" fill="#8478ff"></path></g></svg>